Coordinates
version=1
nRows=26
nColumns=22
inDegrees=yes

Units are S.I. units (second, meters, Newtons, ...)
If the header above contains a line with 'inDegrees', this indicates whether rotational values are in degrees (yes) or radians (no).

endheader
time	pelvis_tilt	pelvis_list	pelvis_rotation	pelvis_tx	pelvis_ty	pelvis_tz	hip_flexion_r	hip_adduction_r	hip_rotation_r	knee_angle_r	ankle_angle_r	subtalar_angle_r	hip_flexion_l	hip_adduction_l	hip_rotation_l	knee_angle_l	ankle_angle_l	subtalar_angle_l	lumbar_extension	lumbar_bending	lumbar_rotation
      2.78000000	     -7.73232773	      2.49950438	      1.05274360	      0.42748424	      0.97372842	      0.20225318	     38.50910211	     -6.54393559	     -6.76446418	    -39.80478165	     12.48443831	      0.12705276	     14.09079793	      7.86140947	     -3.42064387	    -22.40169659	     22.51820304	     -3.67286776	     -3.54452753	     -1.78109635	     -1.58489685
      2.79000000	     -7.78851975	      2.49090051	      1.01179493	      0.43468876	      0.97311395	      0.20259577	     38.77326529	     -6.25691593	     -6.85300072	    -37.66430605	     12.27726158	      0.76919978	     13.61845129	      7.82270538	     -3.45566581	    -22.28486864	     22.90686481	     -3.60517152	     -3.52436290	     -1.78996189	     -1.59860635
      2.80000000	     -7.86748517	      2.49595089	      0.95852678	      0.44200373	      0.97238835	      0.20299529	     39.02860366	     -5.96769484	     -6.93860274	    -35.53978670	     12.04658995	      1.36770264	     13.16755499	      7.78841164	     -3.55491223	    -22.17313592	     23.29298719	     -3.56660471	     -3.46298197	     -1.81611182	     -1.58862769
      2.81000000	     -7.93929656	      2.51766700	      0.90079106	      0.44943668	      0.97159767	      0.20342896	     39.23923713	     -5.68517655	     -7.01286528	    -33.43819537	     11.89024168	      1.98826676	     12.70310012	      7.76733587	     -3.68832380	    -22.06538869	     23.67083816	     -3.53259506	     -3.39856175	     -1.85986018	     -1.57821256
      2.82000000	     -8.02722249	      2.54949997	      0.83697178	      0.45702463	      0.97070278	      0.20386876	     39.44102528	     -5.42128538	     -7.13660306	    -31.38813992	     11.75438116	      2.51696199	     12.23796070	      7.75284835	     -3.86270551	    -21.94142526	     24.04901240	     -3.51220382	     -3.29333132	     -1.90998245	     -1.54009220
      2.83000000	     -8.05175668	      2.63269477	      0.78335968	      0.46478160	      0.96983838	      0.20427668	     39.55289367	     -5.22430074	     -7.27052664	    -29.41666578	     11.84422821	      3.32349437	     11.66335356	      7.80632106	     -3.97673004	    -21.76203126	     24.39072377	     -3.43273418	     -3.25107805	     -2.01469158	     -1.51106504
      2.84000000	     -8.12664679	      2.68856886	      0.73208100	      0.47266132	      0.96879769	      0.20469297	     39.69440641	     -5.01496157	     -7.48325123	    -27.51651981	     11.88648424	      3.78237588	     11.15790426	      7.82125878	     -4.14629731	    -21.62974236	     24.77782878	     -3.39866198	     -3.12995832	     -2.08030000	     -1.47948173
      2.85000000	     -8.15060602	      2.77486140	      0.69430679	      0.48071052	      0.96777323	      0.20507381	     39.76893978	     -4.86305694	     -7.75917436	    -25.73175381	     12.03669257	      4.30445914	     10.56480885	      7.87854896	     -4.26678344	    -21.45704095	     25.13794670	     -3.32017019	     -3.05541830	     -2.17430452	     -1.45848331
      2.86000000	     -8.18532582	      2.87188648	      0.66965906	      0.48889441	      0.96665391	      0.20543765	     39.84740507	     -4.74338441	     -8.09664469	    -24.07757229	     12.20670130	      4.69124018	      9.97775133	      7.95128394	     -4.36528240	    -21.29291729	     25.49267907	     -3.23759721	     -2.95446243	     -2.27566896	     -1.44544746
      2.87000000	     -8.21113142	      2.96832633	      0.66059641	      0.49721380	      0.96548288	      0.20580049	     39.90698007	     -4.64398253	     -8.49238192	    -22.56951031	     12.38771885	      4.96979536	      9.37932224	      8.02483410	     -4.44319069	    -21.14399428	     25.84005377	     -3.14529528	     -2.85242049	     -2.37430568	     -1.44353527
      2.88000000	     -8.22637105	      3.05994194	      0.66668933	      0.50566260	      0.96426756	      0.20618654	     39.94814222	     -4.55571618	     -8.92645233	    -21.22977654	     12.57491891	      5.15131429	      8.77614275	      8.09265143	     -4.49612281	    -21.02601633	     26.17694488	     -3.04326016	     -2.75493495	     -2.46755529	     -1.45477990
      2.89000000	     -8.23765516	      3.14131346	      0.69646141	      0.51422606	      0.96299945	      0.20657824	     39.97717700	     -4.47433121	     -9.36858744	    -20.07458928	     12.77419661	      5.24741095	      8.18148019	      8.15014045	     -4.51346838	    -20.94998634	     26.51135478	     -2.93809419	     -2.65410261	     -2.54735583	     -1.49084012
      2.90000000	     -8.23822707	      3.21358120	      0.74891093	      0.52289816	      0.96169739	      0.20698768	     39.98751815	     -4.39626424	     -9.78211569	    -19.12305585	     12.98934639	      5.28821891	      7.59202378	      8.19722478	     -4.48972501	    -20.92346615	     26.82960686	     -2.82327502	     -2.56220913	     -2.61605320	     -1.54908669
      2.91000000	     -8.23019248	      3.27378194	      0.82940709	      0.53167145	      0.96036122	      0.20743598	     39.98331564	     -4.31767326	    -10.13489369	    -18.39763303	     13.21530017	      5.28864735	      7.01894233	      8.22720072	     -4.42006147	    -20.96280988	     27.13128996	     -2.70209339	     -2.47567135	     -2.67592255	     -1.63937446
      2.92000000	     -8.23579875	      3.32956747	      0.93456237	      0.54050762	      0.95894959	      0.20791267	     39.99186321	     -4.23937358	    -10.36918736	    -17.90803376	     13.45131822	      5.25855471	      6.49668741	      8.25222767	     -4.28712433	    -21.08620888	     27.42485776	     -2.59524948	     -2.37463905	     -2.73613107	     -1.72923650
      2.93000000	     -8.19638877	      3.34890778	      1.06176160	      0.54950960	      0.95762007	      0.20841925	     39.92741857	     -4.13385238	    -10.50884471	    -17.63262274	     13.60939959	      5.18350584	      5.93017813	      8.22959893	     -4.13970987	    -21.23659222	     27.65565501	     -2.41129686	     -2.31587614	     -2.74721601	     -1.89527720
      2.94000000	     -8.20153502	      3.37005684	      1.22429490	      0.55856001	      0.95617175	      0.20892915	     39.92715051	     -4.04577885	    -10.52289695	    -17.63175590	     13.73292249	      5.08907981	      5.46249811	      8.20748140	     -3.93779593	    -21.49733090	     27.89116705	     -2.29059639	     -2.20509858	     -2.76765221	     -2.06211263
      2.95000000	     -8.20366431	      3.35494759	      1.41376021	      0.56774706	      0.95476838	      0.20946582	     39.89498849	     -3.92885153	    -10.41510758	    -17.81671221	     13.68644841	      4.91098743	      5.01004476	      8.14045454	     -3.69910916	    -21.80828621	     28.08475280	     -2.11023217	     -2.08727793	     -2.74563372	     -2.26732690
      2.96000000	     -8.22069638	      3.30301326	      1.61739710	      0.57702626	      0.95338343	      0.21005676	     39.86887595	     -3.77402294	    -10.17933960	    -18.18950201	     13.42039334	      4.56711945	      4.62052937	      8.02182032	     -3.46156312	    -22.21933465	     28.21860088	     -1.86078161	     -1.94688431	     -2.68526762	     -2.46638739
      2.97000000	     -8.26291769	      3.22220973	      1.82671336	      0.58643683	      0.95203244	      0.21069392	     39.87246161	     -3.59138038	     -9.85141404	    -18.74107358	     12.92035016	      4.12108559	      4.27879499	      7.86163940	     -3.23429599	    -22.67711165	     28.32414417	     -1.61149315	     -1.76127642	     -2.59086662	     -2.67829170
      2.98000000	     -8.31769829	      3.08578486	      2.04467938	      0.59596670	      0.95078616	      0.21137070	     39.88922421	     -3.36416576	     -9.50161543	    -19.42452254	     12.12430858	      3.52080265	      3.97889045	      7.63560279	     -2.98369292	    -23.19405478	     28.38348810	     -1.30777600	     -1.55021512	     -2.43345120	     -2.87918824
      2.99000000	     -8.37469552	      2.89115208	      2.25597832	      0.60563507	      0.94969657	      0.21209754	     39.91714066	     -3.08832734	     -9.15719517	    -20.21195891	     11.05201498	      2.78815159	      3.70374594	      7.33969379	     -2.72823560	    -23.75576674	     28.37723387	     -0.94688993	     -1.32066698	     -2.20525560	     -3.05685712
      3.00000000	     -8.41977913	      2.64515557	      2.44650861	      0.61545455	      0.94881113	      0.21289179	     39.95457608	     -2.77055016	     -8.85241692	    -21.09043653	      9.79184980	      1.91305686	      3.43455499	      6.98215056	     -2.47234165	    -24.35453461	     28.29684210	     -0.50212134	     -1.08798553	     -1.91453701	     -3.20194055
      3.01000000	     -8.44357451	      2.32710144	      2.60273405	      0.62543759	      0.94816706	      0.21376686	     39.98905410	     -2.39289193	     -8.61449913	    -22.03594404	      8.44670003	      1.05208633	      3.16986347	      6.53850634	     -2.23666909	    -25.00360052	     28.14250300	     -0.00554266	     -0.86184839	     -1.53361689	     -3.31068853
      3.02000000	     -8.42565112	      1.97606383	      2.70580509	      0.63559164	      0.94781006	      0.21472412	     40.00284295	     -1.98098775	     -8.40633801	    -23.04643855	      7.15821474	      0.19650809	      2.86983148	      6.06134298	     -1.98822079	    -25.66982968	     27.87196046	      0.58492998	     -0.66822089	     -1.10485264	     -3.36134171
      3.03000000	     -8.36406081	      1.56807737	      2.75199749	      0.64592061	      0.94773973	      0.21576848	     39.97274010	     -1.51136944	     -8.24317683	    -24.08945277	      6.03544778	     -0.50071614	      2.55266495	      5.51912184	     -1.76780959	    -26.38954266	     27.51009529	      1.21628550	     -0.50984947	     -0.59606694	     -3.35565779
